<svg xmlns="http://www.w3.org/2000/svg" width="152" height="152" fill="none"><path fill="#EEE" d="M0 0h152v152H0z"/><path fill="#000" d="M71.21 25.37c5.65 11.66-11.75 19.57-19.73 10.83-3.32-3.72-1.8-10.92 6.27-14.83 4.04-2 9.7-3.83 13.46 4ZM106.8 20.24c6.14 12.7-12.8 21.31-21.5 11.8-3.61-4.07-1.95-11.9 6.84-16.16 4.4-2.18 10.55-4.15 14.66 4.36Z"/><path fill="#000" fill-rule="evenodd" d="M70.4 128.7c12.87 1.48 26.27-2.56 31.45-10.9 4.37-7 .8-9.43-4.25-3.78-10.61 12.26-21.62 6.74-26.26-5.65l1.2-.4c22.4-9.02 36.47-33.52 27.58-47.38-12.2-19.12-50.4-2.03-55.18 24.76-4.38 24.77 7.03 41.33 25.46 43.35Zm13.8-66.77c3.85 6.2-.8 28.14-14.72 38.1-.4-3.1-.4-6.46-.14-9.96 2.8-24.5 10.75-34.6 14.86-28.14Z" clip-rule="evenodd"/></svg>